<svg width="125" height="125" viewBox="0 0 125 125" fill="none" xmlns="http://www.w3.org/2000/svg">
<mask id="mask0_2804_466" style="mask-type:luminance" maskUnits="userSpaceOnUse" x="4" y="4" width="117" height="117">
<path d="M120.482 4.4248H4.72998V120.177H120.482V4.4248Z" fill="white"/>
</mask>
<g mask="url(#mask0_2804_466)">
<mask id="mask1_2804_466" style="mask-type:luminance" maskUnits="userSpaceOnUse" x="6" y="2" width="114" height="121">
<path d="M119.125 2.51709H6.0874V122.08H119.125V2.51709Z" fill="white"/>
</mask>
<g mask="url(#mask1_2804_466)">
<path d="M55.9599 115.277C50.3374 115.315 44.7149 115.485 39.1974 114C27.6049 110.88 18.9449 103.87 12.5224 93.9245C8.14745 87.1495 6.20245 79.627 6.14495 71.612C6.08495 63.0745 6.05995 54.5345 6.13995 45.997C6.25495 33.642 11.2599 23.437 20.0574 14.9495C26.3224 8.90452 33.6224 4.82202 42.2424 3.23952C44.6874 2.78702 47.1699 2.55202 49.6574 2.54202C58.3124 2.51702 66.965 2.51702 75.6199 2.53952C87.1249 2.57452 97.0574 6.55202 105.422 14.467C113.09 21.7145 117.68 30.492 118.852 41.002C119.027 42.5995 119.112 44.207 119.112 45.8145C119.135 56.4195 119.137 67.027 119.122 77.632C119.12 84.8495 113.795 90.1895 106.565 90.2045C98.1024 90.222 89.6399 90.1995 81.1774 90.2195C79.9499 90.222 78.7549 89.832 77.5199 89.982C76.0874 89.047 74.6625 88.102 73.2225 87.182C72.8124 86.9195 72.31 86.7895 72.0975 86.2845C70.77 83.7995 69.5974 81.252 69.1649 78.407C68.6699 80.032 68.3549 81.6795 67.5049 83.1445C64.9824 81.3545 62.5849 79.397 60.3224 77.287C60.5249 77.197 60.7224 77.0945 60.9299 77.017C65.2174 75.417 67.8649 72.3545 68.8324 67.917C69.4074 65.2795 69.0449 62.5795 69.0449 59.907C70.6499 56.202 72.3624 52.547 74.3174 49.0095C74.6974 48.302 75.1775 47.652 75.7449 47.0845C77.28 45.587 79.2099 45.747 80.4449 47.4995C80.9599 48.2545 81.3699 49.077 81.66 49.942C81.39 50.1245 81.4374 50.407 81.4374 50.6695C81.4424 57.6345 81.3999 64.5995 81.4725 71.5645C81.515 75.802 83.5674 77.732 87.8499 77.7595C91.9449 77.787 96.0399 77.7795 100.135 77.767C104.36 77.7545 106.482 75.6495 106.51 71.4045C106.535 67.5395 106.51 63.6745 106.507 59.8095C108.71 58.662 111.097 57.907 113.557 57.582C114.097 57.5145 114.515 57.407 114.687 56.822C114.992 55.7895 115 54.792 114.425 53.8395C113.635 52.5395 112.432 52.3095 111.175 53.1695C109.772 54.127 108.257 54.827 106.545 55.027L106.482 48.387C106.72 47.9095 107.22 47.742 107.612 47.452C108.715 46.6395 108.912 45.537 108.15 44.382C107.7 43.6995 107.022 43.392 106.28 43.1745C106.035 39.172 104.795 35.4645 102.95 31.937C101.247 28.6845 98.8875 25.932 96.3549 23.3145C97.42 19.5095 96.1624 17.5545 92.2149 16.8945C91.7674 16.802 91.3149 16.7345 90.8599 16.692C87.6824 16.517 84.8649 15.592 82.8524 12.932C82.6799 12.727 82.49 12.537 82.285 12.367C81.2049 11.3595 79.9599 11.047 78.4849 11.262C76.1099 11.6095 74.7499 13.1395 73.6824 15.082L52.5374 15.0445C52.4724 14.062 52.6974 13.087 52.5474 12.0945C52.3774 10.9595 51.7049 10.502 50.3524 10.737C49.0824 10.957 48.6124 11.6295 48.9349 12.7945C49.1349 13.522 49.3624 14.242 49.5774 14.967L48.0799 15.0895C46.5975 12.017 45.2174 8.92202 45.3449 5.38702C45.3849 4.28952 44.32 3.52702 43.0174 3.61952C41.6474 3.71702 40.3749 4.84202 40.5324 5.84202C40.5799 6.06452 40.6824 6.27202 40.8274 6.44452C42.7324 8.88452 43.6599 11.752 44.4249 14.687C44.5024 14.982 44.7949 15.3945 44.4249 15.632C44.2374 15.762 44.0149 15.8395 43.7849 15.8495C43.5549 15.8595 43.3274 15.807 43.1274 15.6945C42.4624 15.307 41.8974 14.772 41.4724 14.1295C40.7349 13.057 40.0249 11.967 39.3074 10.882C38.7874 10.032 38.16 9.25452 37.4424 8.56202C37.1274 8.24702 36.7225 8.04202 36.2824 7.97452C35.8424 7.90702 35.3924 7.98452 34.9999 8.19202C34.0949 8.60452 33.7125 9.35452 33.705 10.307C33.6975 11.657 34.5424 12.747 35.9224 13.187C36.2399 13.287 36.6799 13.2145 36.7949 13.617C37.1924 14.992 38.3199 15.8745 39.0499 17.022C38.8049 17.4145 38.3574 17.4695 37.9874 17.647C30.6974 21.1445 24.8374 26.1195 21.4699 33.657C19.6949 37.6295 18.9949 41.8295 18.9074 46.1495C17.2599 45.1795 15.8299 43.9045 14.2774 42.802C13.4574 42.2195 12.6399 42.1895 11.8449 42.7845C10.9824 43.4295 10.7524 44.3245 11.0399 45.3345C11.3174 46.317 11.8049 47.082 13.0124 47.0295C15.6549 46.9145 17.4099 48.4445 18.9824 50.297C18.9599 51.282 18.9374 52.2645 18.9124 53.2495C17.9074 53.1745 17.0149 52.712 16.0774 52.4045C14.9924 52.0495 13.9349 51.5995 12.7674 51.5695C11.4224 51.537 10.8024 52.1045 10.7174 53.4395C10.5924 55.3595 10.8799 55.7695 12.4124 55.937C14.6074 56.177 16.8099 56.3895 18.9649 56.907C18.9624 61.9595 18.9624 67.0145 18.9599 72.0695C18.9799 75.172 19.4824 78.2545 20.4474 81.202C22.0749 86.2845 25.1424 90.4245 28.8899 94.1345C33.8224 99.0195 39.6649 101.962 46.6074 102.655C50.2749 103.022 53.9499 102.765 57.6224 102.835C60.4524 102.89 63.2824 102.892 66.1149 102.92C66.0724 103.23 65.7874 103.325 65.5949 103.5C61.8399 106.982 57.8899 110.302 55.9599 115.277Z" fill="#72B52D"/>
<path d="M49.5826 14.9597C49.3675 14.2372 49.14 13.5147 48.94 12.7872C48.6175 11.6222 49.0875 10.9497 50.3575 10.7297C51.71 10.4947 52.3826 10.9547 52.5526 12.0872C52.7026 13.0797 52.4776 14.0547 52.5425 15.0372C52.2325 17.2272 51.6875 19.3897 51.82 21.6297C51.9426 23.7447 52.7525 25.3847 54.875 26.1522C55.7476 26.4522 56.51 27.0097 57.0575 27.7522C57.0425 28.3197 57.6376 28.9197 56.9701 29.4522C56.285 29.9997 55.605 29.7497 54.925 29.4397C54.7175 29.3447 54.5225 29.2122 54.3075 29.1372C54.0175 29.0347 53.6926 28.9597 53.4226 29.1497C53.07 29.3947 53.335 29.7072 53.41 29.9797C53.8651 31.6222 55.0625 32.6922 56.3125 33.7197C56.725 34.0597 56.82 33.7097 56.9675 33.4447C58.025 31.5422 59.0851 29.6397 60.1426 27.7372C60.7951 26.9922 61.425 26.2222 62.105 25.5047C63.9776 23.5247 66.41 22.3522 68.71 20.9947C71.07 19.6047 72.7951 17.6922 73.6826 15.0747C74.7476 13.1297 76.1101 11.6022 78.4851 11.2547C79.9601 11.0397 81.2051 11.3522 82.2851 12.3597C82.4901 12.5322 82.6801 12.7222 82.8526 12.9247C84.8626 15.5847 87.6826 16.5072 90.8601 16.6847C91.3151 16.7272 91.7675 16.7947 92.215 16.8872C96.16 17.5472 97.4201 19.5022 96.3551 23.3072C95.6601 24.3072 95.0176 25.3472 94.2601 26.2997C91.0576 30.3222 87.5551 34.0497 83.3751 37.0897C82.9851 37.3722 82.5851 37.5947 82.6001 38.2322C82.6776 41.9122 83.2951 45.4622 85.1576 48.6847C87.0151 51.8997 89.6651 53.9197 93.5701 53.9197C94.3626 53.9197 94.7076 53.6897 94.8501 52.8697C95.1476 51.1697 94.8101 49.5172 94.6551 47.8472C94.6101 47.3647 94.3876 46.8522 94.7201 46.4072C95.1901 45.7747 96.9751 45.5272 97.8451 45.9472C98.8601 46.4397 99.0351 47.2272 98.6801 48.2372C98.4501 48.8822 98.2601 49.5422 98.1101 50.2122C97.9151 50.9572 97.9401 51.7397 98.1801 52.4722C98.4326 53.1797 98.6776 53.3497 99.3601 52.8122C101.955 50.7597 103.255 47.9797 104.013 44.8647C104.438 43.1172 104.445 43.1147 106.28 43.1697C107.023 43.3872 107.7 43.6972 108.15 44.3772C108.91 45.5297 108.713 46.6347 107.613 47.4472C107.22 47.7372 106.723 47.9047 106.483 48.3822C105.838 48.7497 105.64 49.4272 105.355 50.0347C104.568 51.7197 104.268 53.5647 103.575 55.3697C104.635 55.3897 105.605 55.3672 106.543 55.0222C108.255 54.8247 109.77 54.1247 111.173 53.1672C112.433 52.3072 113.635 52.5372 114.423 53.8372C115 54.7872 114.99 55.7847 114.685 56.8197C114.513 57.4047 114.095 57.5097 113.555 57.5797C111.093 57.9072 108.708 58.6622 106.505 59.8072C105.628 60.1697 104.743 60.5172 103.875 60.8997C101.293 62.0347 98.6851 63.0272 95.8601 63.4747C91.6276 64.1447 84.6401 60.4997 83.5051 56.0472C82.98 53.9872 82.2775 51.9747 81.6551 49.9397C81.3651 49.0747 80.9551 48.2522 80.4401 47.4972C79.2051 45.7422 77.2751 45.5847 75.7376 47.0822C75.1701 47.6497 74.6875 48.2997 74.31 49.0072C72.355 52.5422 70.6425 56.1972 69.0375 59.9047C67.225 63.9547 64.4675 67.3297 61.4675 70.5347C60.62 71.4172 59.9226 72.4322 59.4025 73.5397C58.125 76.3522 58.1476 75.5097 60.3176 77.2872C62.5801 79.3972 64.9776 81.3547 67.5 83.1447C68.9375 84.3272 70.32 85.5922 72.0925 86.2872C72.305 86.7922 72.8075 86.9222 73.2175 87.1847C74.6575 88.1072 76.0851 89.0497 77.5151 89.9847C78.2876 90.7122 79.1126 91.3922 79.8226 92.1772C82.0051 94.5947 82.1276 97.6172 80.1801 100.23C79.5201 101.12 78.7726 101.94 77.9451 102.675C77.7001 102.907 77.4451 103.132 77.2126 103.377C75.5526 105.125 73.6751 106.66 72.1426 108.53C71.8301 108.91 71.3951 109.325 71.57 109.847C72.0375 111.355 72.9825 112.672 74.2625 113.595C74.385 113.692 74.5401 113.742 74.6951 113.737C74.8526 113.732 75.0026 113.672 75.1176 113.567C75.3601 113.347 75.2151 113.072 75.1426 112.82C74.9026 111.985 74.175 111.57 73.6 111.017C73.19 110.625 72.6325 110.157 72.9226 109.575C73.0951 109.185 73.365 108.85 73.7075 108.597C74.05 108.347 74.4526 108.19 74.8751 108.142C75.6951 108.06 75.9075 108.68 76.1376 109.24C76.5425 110.227 76.8701 111.25 77.3001 112.227C77.7326 113.207 78.4851 113.402 79.4801 113.022C80.6201 112.587 81.0376 111.745 81.0301 110.607C81.0226 109.422 80.9476 108.232 81.0026 107.05C81.0551 105.957 82.0451 104.947 82.8726 105.112C83.9851 105.335 84.0876 106.242 84.0626 107.167C84.0451 107.855 83.9526 108.545 83.9776 109.23C84.0126 110.252 84.4676 110.59 85.4726 110.412C86.6576 110.202 87.3076 109.402 87.7201 108.345C88.4026 106.592 88.6275 104.72 89.1226 102.92C89.6226 102.18 90.0026 101.33 90.9701 101.047C92.4251 100.625 93.3051 101.127 94.0976 102.855C94.1026 103.895 93.7801 104.907 93.1751 105.752C92.4551 106.83 91.6801 107.875 90.9151 108.92C89.9451 110.242 88.8801 111.52 88.34 113.092C88.1025 113.787 87.5276 114.53 88.2226 115.302C88.4601 115.532 88.7651 115.685 89.0926 115.735C90.7751 116.115 92.3826 115.782 93.9851 115.315L94.3151 115.257C95.1826 115.127 96.0526 115.022 96.9126 114.862C97.7251 114.712 98.2476 114.985 98.4726 115.782C98.6476 116.285 98.7775 116.8 98.8651 117.325C99.0175 118.772 98.5875 119.312 97.1525 119.597C95.1851 119.987 93.1926 119.977 91.2126 119.842C87.9676 119.615 84.7126 120.052 81.6426 121.127C78.3701 122.255 74.84 122.4 71.4876 121.55C67.6826 120.637 63.7825 120.495 59.9125 120.092C59.305 120.03 58.7051 119.917 58.1175 119.76C55.8975 119.165 55.3675 118.24 55.8775 115.962C55.915 115.737 55.9401 115.512 55.9501 115.285C57.8825 110.312 61.83 106.99 65.59 103.512C65.78 103.335 66.0676 103.242 66.1101 102.932C68.4725 101.065 70.6401 98.9622 72.5801 96.6572C72.9876 96.1772 72.7101 96.0697 72.2826 95.8897C67.5425 93.9047 62.8101 91.9072 58.0801 89.8972C55.3601 88.5047 52.805 86.8297 50.1651 85.2997C48.3776 84.2622 46.5401 83.3222 44.5251 82.7947C42.5851 82.2847 40.635 82.0272 38.6651 82.6672C38.3201 82.6147 37.9676 82.6922 37.6776 82.8872C36.8901 83.3122 36.59 83.0947 36.4525 82.2322C36.1925 80.5972 35.5426 79.0897 34.7351 77.6472C33.3551 75.1822 31.9825 72.7122 30.6175 70.2397C28.3326 66.0797 25.975 61.9797 22.5876 58.5697C21.555 57.5297 20.4125 56.9397 18.96 56.9222C16.805 56.4047 14.6051 56.1922 12.4076 55.9522C10.8751 55.7847 10.5876 55.3747 10.7126 53.4547C10.8001 52.1197 11.4201 51.5522 12.7626 51.5847C13.9276 51.6122 14.9876 52.0622 16.0726 52.4197C17.0101 52.7272 17.9025 53.1872 18.9075 53.2647C19.765 53.6497 20.6301 53.6722 21.6701 53.3197C20.7026 52.2872 20.0051 51.1622 18.9751 50.3122C17.4026 48.4597 15.6476 46.9297 13.0051 47.0447C11.7976 47.0972 11.3101 46.3322 11.0326 45.3497C10.7476 44.3397 10.9751 43.4447 11.8376 42.7997C12.6351 42.2047 13.4501 42.2322 14.2701 42.8172C15.8226 43.9222 17.2526 45.1947 18.9001 46.1647C21.2351 48.0972 23.7026 49.8697 26.2801 51.4672C26.3776 50.6822 26.0226 50.1847 25.6976 49.6772C25.3051 49.0697 24.7151 48.6172 24.3926 47.9472C23.8851 46.8947 24.55 46.3147 25.2375 45.7522C25.92 45.1947 26.4125 45.6122 26.9051 46.1022C27.8826 47.0797 28.3426 48.3347 28.805 49.5822C29.5576 51.6122 30.14 53.7097 31.1775 55.6272C31.5625 56.1897 31.8475 56.8572 32.6675 57.1197C32.7725 55.9272 32.8675 54.8322 32.9675 53.7372C33.1 52.2847 33.33 50.8597 34.2626 49.6622C35.25 48.3947 36.6775 47.8722 38.16 47.7897C39.1726 47.7347 39.63 48.8597 40.2175 49.5722C40.6725 50.1347 41.0825 50.7347 41.44 51.3647C42.2375 52.7447 42.9951 54.1472 43.7676 55.5422C44.7376 57.9422 46.005 60.2122 47.545 62.2947C48.5025 55.5847 50.3275 49.4222 52.4226 43.3322C52.9525 41.7897 52.945 41.7872 51.3625 41.2147C49.0975 39.6422 47.8625 37.3572 47.01 34.8272C46.49 33.2797 46.0401 31.7072 45.5601 30.1472C44.9276 27.1347 44.1125 24.1747 42.805 21.3797C41.9676 19.5897 40.6226 18.1997 39.0401 17.0322C38.3125 15.8822 37.185 15.0022 36.7875 13.6272C36.67 13.2222 36.2325 13.2972 35.9151 13.1972C34.5326 12.7572 33.69 11.6672 33.6975 10.3172C33.7025 9.36216 34.0875 8.61466 34.9925 8.20216C35.385 7.99466 35.8351 7.91716 36.2751 7.98466C36.7151 8.05216 37.1226 8.25716 37.4351 8.57216C38.1526 9.26466 38.78 10.0422 39.3 10.8922C40.0175 11.9772 40.7276 13.0697 41.465 14.1397C41.89 14.7822 42.455 15.3172 43.12 15.7047C43.32 15.8172 43.5476 15.8697 43.7775 15.8597C44.0075 15.8497 44.2276 15.7722 44.4175 15.6422C44.7875 15.4047 44.495 14.9922 44.4175 14.6972C43.6525 11.7622 42.725 8.89466 40.82 6.45466C40.675 6.27966 40.5726 6.07216 40.5251 5.85216C40.3676 4.85216 41.64 3.72716 43.01 3.62966C44.3125 3.53716 45.3776 4.29966 45.3376 5.39716C45.2076 8.93216 46.59 12.0272 48.0725 15.0997C48.4175 15.9847 48.765 16.8697 49.175 17.9247C49.905 16.8472 50.0526 15.9422 49.5826 14.9597ZM69.5225 115.26C69.8025 115.232 70.0775 115.187 70.35 115.12C71.525 114.785 71.6226 114.395 70.7751 113.485C70.5601 113.242 70.2975 113.047 70.005 112.907C69.7125 112.767 69.3951 112.687 69.07 112.67C68.7476 112.652 68.4226 112.702 68.1175 112.812C67.8125 112.922 67.5326 113.092 67.2926 113.31C66.4976 114.025 66.5651 114.41 67.5726 114.835C68.1901 115.105 68.8526 115.247 69.5225 115.26Z" fill="#010201"/>
<path d="M89.1298 102.91C88.6348 104.712 88.4073 106.582 87.7273 108.335C87.3148 109.392 86.6648 110.195 85.4798 110.402C84.4723 110.58 84.0198 110.242 83.9823 109.22C83.9573 108.535 84.0523 107.845 84.0673 107.157C84.0898 106.235 83.9898 105.325 82.8773 105.102C82.0473 104.937 81.0573 105.947 81.0073 107.04C80.9523 108.222 81.0248 109.412 81.0348 110.597C81.0423 111.735 80.6248 112.577 79.4848 113.012C78.4898 113.39 77.7348 113.197 77.3048 112.217C76.8748 111.24 76.5473 110.22 76.1423 109.23C75.9123 108.67 75.6998 108.05 74.8798 108.132C74.4573 108.18 74.0548 108.337 73.7123 108.587C73.3698 108.84 73.0998 109.175 72.9273 109.565C72.6373 110.147 73.1948 110.615 73.6048 111.007C74.1798 111.56 74.9073 111.975 75.1473 112.81C75.2198 113.062 75.3648 113.337 75.1223 113.557C75.0048 113.662 74.8548 113.722 74.6998 113.727C74.5423 113.732 74.3898 113.682 74.2673 113.585C72.9873 112.66 72.0423 111.345 71.5748 109.837C71.3998 109.315 71.8348 108.902 72.1473 108.52C73.6798 106.65 75.5573 105.115 77.2173 103.367C77.4498 103.122 77.7048 102.897 77.9498 102.665C78.3598 102.977 78.8348 102.827 79.2773 102.832C82.5598 102.872 85.8448 102.887 89.1298 102.91Z" fill="#72B52D"/>
<path d="M88.2299 115.292C87.5349 114.522 88.1099 113.777 88.3474 113.082C88.8874 111.51 89.9524 110.235 90.9224 108.91C91.6899 107.865 92.4624 106.82 93.1824 105.742C93.7874 104.897 94.1099 103.882 94.1049 102.845C94.5099 103.125 94.3249 103.547 94.3274 103.897C94.3399 107.68 94.3299 111.462 94.3249 115.245C94.2149 115.265 94.1049 115.282 93.9949 115.302C92.0749 115.302 90.1524 115.297 88.2299 115.292Z" fill="#72B52D"/>
<path d="M31.1899 55.6147C31.6474 54.8297 31.3849 53.9747 31.3874 53.1622C31.4024 48.5722 32.2524 44.1897 34.6474 40.2197C37.3074 35.8122 40.8074 32.2822 45.5724 30.1372C46.0524 31.6972 46.5024 33.2697 47.0224 34.8172C47.8749 37.3472 49.1074 39.6322 51.3749 41.2047C47.7224 43.1822 45.4024 46.1922 44.3174 50.1972C43.8424 51.9547 43.9524 53.7522 43.7799 55.5297C43.0074 54.1347 42.2499 52.7322 41.4524 51.3522C41.0949 50.7222 40.6874 50.1222 40.2299 49.5597C39.6424 48.8472 39.1824 47.7222 38.1724 47.7772C36.6899 47.8597 35.2624 48.3822 34.2749 49.6497C33.3424 50.8472 33.1124 52.2722 32.9799 53.7247C32.8799 54.8197 32.7849 55.9147 32.6799 57.1072C31.8599 56.8447 31.5749 56.1772 31.1899 55.6147Z" fill="#72B52D"/>
<path d="M58.0849 89.8871C50.2099 91.2471 43.9674 88.2246 38.6724 82.6546C40.6399 82.0146 42.5899 82.2721 44.5299 82.7821C46.5449 83.3121 48.3824 84.2521 50.1699 85.2871C52.8099 86.8196 55.3674 88.4946 58.0849 89.8871Z" fill="#72B52D"/>
<path d="M57.0552 27.7521C58.0802 27.6321 59.1152 27.6271 60.1427 27.7371C59.0852 29.6396 58.0252 31.5421 56.9677 33.4446C56.8202 33.7096 56.7252 34.0596 56.3127 33.7196C55.0627 32.6896 53.8627 31.6221 53.4102 29.9796C53.3352 29.7071 53.0727 29.3971 53.4227 29.1496C53.6952 28.9596 54.0177 29.0346 54.3077 29.1371C54.5227 29.2121 54.7152 29.3446 54.9252 29.4396C55.6027 29.7521 56.2852 29.9996 56.9702 29.4521C57.6352 28.9196 57.0402 28.3196 57.0552 27.7521Z" fill="#72B52D"/>
<path d="M69.5222 115.26C68.8522 115.247 68.1897 115.105 67.5722 114.837C66.5647 114.412 66.4972 114.027 67.2922 113.312C67.5322 113.092 67.8122 112.925 68.1172 112.815C68.4222 112.705 68.7472 112.657 69.0697 112.672C69.3922 112.69 69.7122 112.77 70.0047 112.91C70.2972 113.05 70.5597 113.247 70.7747 113.487C71.6222 114.395 71.5247 114.787 70.3497 115.122C70.0797 115.187 69.8022 115.232 69.5222 115.26Z" fill="#72B52D"/>
</g>
</g>
</svg>
