<svg width="194" height="72" viewBox="0 0 194 72" fill="none" xmlns="http://www.w3.org/2000/svg">
<g clip-path="url(#clip0_2804_441)">
<path d="M56.4954 33.6275C56.4954 33.6275 56.4954 33.6471 56.4954 33.659L53.9445 44.8564C53.8068 45.4897 53.1818 45.9541 52.4588 45.9541H49.3809C49.153 45.9541 48.9484 46.1075 48.8855 46.3279C46.0437 56.0812 42.1955 62.7856 37.1132 66.8105C32.7891 70.2375 27.4591 71.8349 20.3406 71.8349C13.9413 71.8349 9.62928 69.7534 5.96978 65.646C1.13495 60.2164 -0.865792 51.3286 0.344877 40.619C2.53037 20.5141 12.8368 0.228224 32.691 0.228224C38.7287 0.173142 43.4691 2.05773 46.7671 5.81904C50.2535 9.79674 52.0263 15.7889 52.034 23.6302C52.0222 24.3423 51.4368 24.9167 50.733 24.9167H36.1893C35.6745 24.9167 35.2146 24.4486 35.2224 23.9331C35.1043 18.5115 33.5125 15.8676 30.3522 15.8676C24.7784 15.8676 21.4883 23.524 19.7431 27.7692C17.306 33.6982 16.0678 40.1352 16.3115 46.5482C16.4255 49.5345 16.9012 53.7326 19.7038 55.4715C22.188 57.0138 25.7336 55.9908 27.8797 54.2834C30.0259 52.5756 31.7515 49.6212 32.4787 46.926C32.5808 46.5523 32.5889 46.2612 32.4905 46.1312C32.3883 45.9975 32.1053 45.966 31.8892 45.966H28.1549C27.7539 45.966 27.3569 45.7812 27.1172 45.4819C26.9167 45.2301 26.8381 44.9193 26.9088 44.6126L29.4638 33.3953C29.5896 32.8212 30.1045 32.3882 30.7374 32.3097V32.2819H55.2455C55.3046 32.2819 55.3635 32.2819 55.4186 32.2938C56.0554 32.3764 56.5035 32.9745 56.4917 33.6275H56.4954Z" fill="#0AE448"/>
<path d="M98.6957 20.758C98.6839 21.4584 98.0981 22.0328 97.3947 22.0328H83.9987C83.1221 22.0328 82.3869 21.3128 82.3869 20.4354C82.3869 16.4813 81.0348 14.5574 78.2678 14.5574C75.5004 14.5574 73.7158 16.2767 73.6647 19.2787C73.6059 22.6269 75.4767 25.6682 80.8069 30.897C87.8233 37.5541 90.6336 43.4518 90.5001 51.2459C90.2799 63.8518 81.8052 72 68.9125 72C62.3283 72 57.2971 70.2178 53.9521 66.7044C50.556 63.1356 48.9993 57.8989 49.3257 51.1396C49.3412 50.4393 49.9229 49.8689 50.6267 49.8689H64.4826C64.86 49.8689 65.2333 50.0537 65.4849 50.3685C65.7011 50.64 65.7914 50.9744 65.7366 51.2892C65.583 53.7285 66.0037 55.55 66.951 56.5574C67.5604 57.2104 68.4055 57.5411 69.4627 57.5411C72.0218 57.5411 73.5233 55.7115 73.5781 52.5245C73.6255 49.7704 72.7645 47.3548 68.0714 42.4722C62.0101 36.48 56.5737 30.2911 56.7428 20.5574C56.8412 14.9154 59.058 9.75344 62.9851 6.02359C67.1357 2.08131 72.8158 0 79.4075 0C86.0113 0.047213 91.0151 1.95147 94.2813 5.66163C97.3751 9.179 98.8648 14.2584 98.6997 20.758H98.6957Z" fill="#0AE448"/>
<path d="M140.22 69.6273L140.306 2.58875C140.318 1.88448 139.756 1.31006 139.053 1.31006H118.318C117.622 1.31006 117.316 1.91596 117.115 2.31727L87.0962 69.2184V69.2302C87.0962 69.2302 87.0881 69.2417 87.0844 69.2458C86.7502 70.068 87.383 70.9495 88.2636 70.9495H102.756C103.538 70.9495 104.057 70.7095 104.313 70.2098L107.19 63.2143C107.544 62.2817 107.611 62.1954 108.617 62.1954H122.465C123.428 62.1954 123.448 62.215 123.432 63.1672L123.121 69.6706C123.11 70.375 123.672 70.9495 124.375 70.9495H139.017C139.391 70.9495 139.741 70.7921 139.972 70.5128C140.181 70.2647 140.267 69.9502 140.22 69.6273ZM114.568 47.2446C114.434 47.2446 114.328 47.2406 114.242 47.2328C114.025 47.2132 113.88 47.0046 113.935 46.7921C113.963 46.6936 114.002 46.5639 114.061 46.4025L124.446 20.4156C124.536 20.1599 124.65 19.9081 124.768 19.6642C124.937 19.314 125.142 19.2904 125.205 19.5501C125.26 19.7664 124.014 46.2332 124.014 46.2332C123.915 47.2247 123.872 47.2643 122.905 47.3469L114.58 47.2484H114.56L114.568 47.2446Z" fill="#0AE448"/>
<path d="M169.756 1.31012H158.75C158.168 1.31012 157.515 1.62093 157.362 2.32126C157.362 2.32126 142.044 69.5843 142.044 69.5921C141.977 69.9029 142.048 70.2099 142.252 70.4655C142.492 70.7644 142.889 70.9495 143.29 70.9495H157.048C157.786 70.9495 158.294 70.5836 158.431 69.9462C158.431 69.9462 160.098 62.3448 160.102 62.3214C160.22 61.7273 160.015 61.2669 159.489 60.9874C159.241 60.8577 158.993 60.7277 158.75 60.5981L156.364 59.3429L153.989 58.0918C153.683 57.9303 153.376 57.7692 153.074 57.6077C152.92 57.5292 152.826 57.3718 152.83 57.1988C152.834 56.9429 153.046 56.7344 153.301 56.7344L160.841 56.7699C163.097 56.7814 165.353 56.6203 167.57 56.2073C183.183 53.2918 193.552 40.6425 193.851 23.4334C194.107 8.74619 186.002 1.30225 169.767 1.30225L169.756 1.31012ZM166.01 41.3429H165.715C165.054 41.3429 164.936 41.2681 164.917 41.2444C164.905 41.2288 169.264 21.8714 169.268 21.8439C169.378 21.2852 169.374 20.9626 169.032 20.7737C168.596 20.5298 162.232 17.1344 162.232 17.1344C162.079 17.0517 161.988 16.8944 161.993 16.7213C161.996 16.4695 162.205 16.2609 162.46 16.2609H172.523C175.656 16.3593 177.401 19.1921 177.319 24.0314C177.173 32.4118 173.234 41.0477 166.01 41.3429Z" fill="#0AE448"/>
<path d="M180.951 70.9498C183.215 70.9498 184.988 69.2068 184.988 66.858C184.988 64.5091 183.215 62.7661 180.951 62.7661C178.687 62.7661 176.895 64.5091 176.895 66.858C176.895 69.2068 178.683 70.9498 180.951 70.9498ZM177.857 66.8421C177.857 64.8476 179.041 63.5413 180.951 63.5413C182.861 63.5413 184.025 64.8435 184.025 66.8421C184.025 68.8409 182.861 70.155 180.951 70.155C179.041 70.155 177.857 68.8528 177.857 66.8421ZM179.178 69.0376H180.463V67.4639H180.837C181.8 67.4639 181.38 68.8528 181.615 69.0376H182.948V68.9706C182.696 68.9039 183.101 67.1609 181.985 66.9761V66.9561C182.527 66.8421 182.877 66.4487 182.877 65.8587C182.877 65.0128 182.268 64.5561 181.285 64.5561H179.171V69.0376H179.178ZM180.463 66.5157V65.465H180.904C181.344 65.465 181.596 65.6028 181.596 65.9884C181.596 66.3424 181.344 66.5117 180.904 66.5117H180.463V66.5157Z" fill="#0AE448"/>
</g>
<defs>
<clipPath id="clip0_2804_441">
<rect width="194" height="72" fill="white"/>
</clipPath>
</defs>
</svg>
