<svg width="105" height="158" viewBox="0 0 105 158" fill="none" xmlns="http://www.w3.org/2000/svg">
<g clip-path="url(#clip0_2804_497)">
<path d="M26.2555 158C40.7426 158 52.5002 146.203 52.5002 131.667V105.333H26.2555C11.7684 105.333 0.0107422 117.131 0.0107422 131.667C0.0107422 146.203 11.7684 158 26.2555 158Z" fill="#0ACF83"/>
<path d="M0.0107422 78.9998C0.0107422 64.4638 11.7684 52.6665 26.2555 52.6665H52.5002V105.333H26.2555C11.7684 105.333 0.0107422 93.5358 0.0107422 78.9998Z" fill="#A259FF"/>
<path d="M0.0107422 26.3333C0.0107422 11.7973 11.7684 0 26.2555 0H52.5002V52.6667H26.2555C11.7684 52.6667 0.0107422 40.8693 0.0107422 26.3333Z" fill="#F24E1E"/>
<path d="M52.5 0H78.7448C93.2319 0 104.99 11.7973 104.99 26.3333C104.99 40.8693 93.2319 52.6667 78.7448 52.6667H52.5V0Z" fill="#FF7262"/>
<path d="M104.99 78.9998C104.99 93.5358 93.2319 105.333 78.7448 105.333C64.2576 105.333 52.5 93.5358 52.5 78.9998C52.5 64.4638 64.2576 52.6665 78.7448 52.6665C93.2319 52.6665 104.99 64.4638 104.99 78.9998Z" fill="#1ABCFE"/>
</g>
<defs>
<clipPath id="clip0_2804_497">
<rect width="105" height="158" fill="white"/>
</clipPath>
</defs>
</svg>
