<svg width="109" height="109" viewBox="0 0 109 109" fill="none" xmlns="http://www.w3.org/2000/svg">
<g clip-path="url(#clip0_2804_485)">
<path d="M54.4781 109C84.4358 109 108.721 84.7146 108.721 54.7569C108.721 24.7992 84.4358 0.513672 54.4781 0.513672C24.5204 0.513672 0.234863 24.7992 0.234863 54.7569C0.234863 84.7146 24.5204 109 54.4781 109Z" fill="#F5BB60"/>
<path d="M48.9484 98.0574C75.9169 98.0574 97.7791 76.1952 97.7791 49.2267C97.7791 22.2583 75.9169 0.395996 48.9484 0.395996C21.9799 0.395996 0.117676 22.2583 0.117676 49.2267C0.117676 76.1952 21.9799 98.0574 48.9484 98.0574Z" fill="#E86F32"/>
<path d="M55.4199 85.1142C78.814 85.1142 97.7787 66.1495 97.7787 42.7553C97.7787 19.3612 78.814 0.396484 55.4199 0.396484C32.0257 0.396484 13.061 19.3612 13.061 42.7553C13.061 66.1495 32.0257 85.1142 55.4199 85.1142Z" fill="#E53D42"/>
<path d="M58.8319 85.114C80.3415 85.114 97.7785 67.677 97.7785 46.1673C97.7785 24.6577 80.3415 7.2207 58.8319 7.2207C37.3223 7.2207 19.8853 24.6577 19.8853 46.1673C19.8853 67.677 37.3223 85.114 58.8319 85.114Z" fill="#BFD141"/>
<path d="M56.0081 85.1139C75.9582 85.1139 92.131 68.9411 92.131 48.991C92.131 29.0409 75.9582 12.8682 56.0081 12.8682C36.058 12.8682 19.8853 29.0409 19.8853 48.991C19.8853 68.9411 36.058 85.1139 56.0081 85.1139Z" fill="#6DB64C"/>
<path d="M50.2426 73.701C67.0085 73.701 80.6 60.1096 80.6 43.3437C80.6 26.5778 67.0085 12.9863 50.2426 12.9863C33.4767 12.9863 19.8853 26.5778 19.8853 43.3437C19.8853 60.1096 33.4767 73.701 50.2426 73.701Z" fill="#AFDBE7"/>
<path d="M55.1843 63.6993C69.2208 63.6993 80.5997 52.3204 80.5997 38.284C80.5997 24.2475 69.2208 12.8687 55.1843 12.8687C41.1479 12.8687 29.769 24.2475 29.769 38.284C29.769 52.3204 41.1479 63.6993 55.1843 63.6993Z" fill="#57BADF"/>
<path d="M58.3614 63.8171C70.7084 63.8171 80.7175 53.808 80.7175 41.4611C80.7175 29.1141 70.7084 19.105 58.3614 19.105C46.0145 19.105 36.0054 29.1141 36.0054 41.4611C36.0054 53.808 46.0145 63.8171 58.3614 63.8171Z" fill="#02B2D6"/>
<path d="M55.0667 63.6989C65.594 63.6989 74.1281 55.1649 74.1281 44.6375C74.1281 34.1102 65.594 25.5762 55.0667 25.5762C44.5394 25.5762 36.0054 34.1102 36.0054 44.6375C36.0054 55.1649 44.5394 63.6989 55.0667 63.6989Z" fill="url(#paint0_radial_2804_485)"/>
<path d="M55.0667 63.6989C65.594 63.6989 74.1281 55.1649 74.1281 44.6375C74.1281 34.1102 65.594 25.5762 55.0667 25.5762C44.5394 25.5762 36.0054 34.1102 36.0054 44.6375C36.0054 55.1649 44.5394 63.6989 55.0667 63.6989Z" fill="#231F20"/>
<path d="M60.0724 42.1401C61.9624 42.9882 64.5686 41.2817 65.8937 38.3289C67.2187 35.3757 66.7606 32.2943 64.8709 31.4466C62.9805 30.5984 60.3747 32.305 59.0497 35.2578C57.7246 38.211 58.1823 41.2924 60.0724 42.1401Z" fill="white"/>
</g>
<defs>
<radialGradient id="paint0_radial_2804_485" cx="0" cy="0" r="1" gradientUnits="userSpaceOnUse" gradientTransform="translate(1947.52 1931.83) scale(1910.67)">
<stop stop-color="#797979"/>
<stop offset="1" stop-color="#4C4C4C"/>
</radialGradient>
<clipPath id="clip0_2804_485">
<rect width="109" height="109" fill="white"/>
</clipPath>
</defs>
</svg>
